<?xml version="1.0" standalone="no"?>
<!DOCTYPE svg PUBLIC "-//W3C//DTD SVG 20010904//EN"
 "http://www.w3.org/TR/2001/REC-SVG-20010904/DTD/svg10.dtd">
<svg version="1.0" xmlns="http://www.w3.org/2000/svg"
 width="32.000000pt" height="32.000000pt" viewBox="0 0 32.000000 32.000000"
 preserveAspectRatio="xMidYMid meet">

<g transform="translate(0.000000,32.000000) scale(0.100000,-0.100000)"
fill="#000000" stroke="none">
<path d="M52 298 c-13 -13 -16 -51 -5 -62 4 -3 6 -29 4 -56 l-2 -50 35 0 c42
0 43 -3 16 -67 -11 -26 -14 -40 -6 -30 19 25 34 21 39 -10 l4 -28 2 28 c1 31
17 35 37 10 8 -10 5 4 -6 30 -26 63 -26 67 11 67 30 0 30 0 28 50 -2 27 0 53
4 56 11 11 8 49 -5 62 -15 15 -51 15 -66 0 -9 -9 -15 -9 -24 0 -15 15 -51 15
-66 0z m93 -68 c3 -5 -3 -10 -15 -10 -12 0 -18 5 -15 10 3 6 10 10 15 10 5 0
12 -4 15 -10z m-19 -167 c-11 -11 -17 4 -9 23 7 18 8 18 11 1 2 -10 1 -21 -2
-24z m34 5 c0 -5 -4 -8 -10 -8 -5 0 -10 10 -10 23 0 18 2 19 10 7 5 -8 10 -18
10 -22z"/>
<path d="M243 220 c-32 -13 -30 -48 3 -60 35 -14 34 -15 34 30 0 42 -2 44 -37
30z"/>
</g>
</svg>
